REM DIRINDEX 1\6,1\2\7,1\2\8,1\2\9,1\3\10,1\3\11,1\4\12,1\4\13,1\4\14,1\5\15,1\5\16,1\5\17
REM DIRNAME folder01,folder02,folder03,folder04,folder05,folder06,folder07,folder08,folder09,folder10,folder11,folder12,folder13,folder14,folder15,folder16,folder17
TITLE ""
FILE "P2Q_t2_0893-0910.mp3" MP3
  TRACK 01 AUDIO
    TITLE "7:cjc040_6512"
    INDEX 01 00:00:00
  TRACK 02 AUDIO
    TITLE "0:"
    INDEX 01 00:01:17
  TRACK 03 AUDIO
    TITLE "8:cjc040_6513"
    INDEX 01 00:01:73
  TRACK 04 AUDIO
    TITLE "0:"
    INDEX 01 00:03:15
  TRACK 05 AUDIO
    TITLE "9:cjc040_6514"
    INDEX 01 00:03:70
  TRACK 06 AUDIO
    TITLE "0:"
    INDEX 01 00:05:22
  TRACK 07 AUDIO
    TITLE "7:cjc040_6515"
    INDEX 01 00:07:03
  TRACK 08 AUDIO
    TITLE "0:"
    INDEX 01 00:08:21
  TRACK 09 AUDIO
    TITLE "8:cjc040_6516"
    INDEX 01 00:09:04
  TRACK 10 AUDIO
    TITLE "0:"
    INDEX 01 00:11:25
  TRACK 11 AUDIO
    TITLE "9:cjc040_6517"
    INDEX 01 00:12:07
  TRACK 12 AUDIO
    TITLE "0:"
    INDEX 01 00:13:28
  TRACK 13 AUDIO
    TITLE "7:cjc040_6518"
    INDEX 01 00:15:09
  TRACK 14 AUDIO
    TITLE "0:"
    INDEX 01 00:16:30
  TRACK 15 AUDIO
    TITLE "8:cjc040_6519"
    INDEX 01 00:17:10
  TRACK 16 AUDIO
    TITLE "0:"
    INDEX 01 00:19:18
  TRACK 17 AUDIO
    TITLE "9:cjc040_6520"
    INDEX 01 00:19:65
  TRACK 18 AUDIO
    TITLE "0:"
    INDEX 01 00:21:17
  TRACK 19 AUDIO
    TITLE "7:cjc040_6521"
    INDEX 01 00:22:72
  TRACK 20 AUDIO
    TITLE "0:"
    INDEX 01 00:24:27
  TRACK 21 AUDIO
    TITLE "8:cjc040_6522"
    INDEX 01 00:25:07
  TRACK 22 AUDIO
    TITLE "0:"
    INDEX 01 00:27:04
  TRACK 23 AUDIO
    TITLE "9:cjc040_6523"
    INDEX 01 00:27:57
  TRACK 24 AUDIO
    TITLE "0:"
    INDEX 01 00:29:13
  TRACK 25 AUDIO
    TITLE "7:cjc040_6524"
    INDEX 01 00:30:69
  TRACK 26 AUDIO
    TITLE "0:"
    INDEX 01 00:32:23
  TRACK 27 AUDIO
    TITLE "8:cjc040_6525"
    INDEX 01 00:32:72
  TRACK 28 AUDIO
    TITLE "0:"
    INDEX 01 00:36:11
  TRACK 29 AUDIO
    TITLE "9:cjc040_6526"
    INDEX 01 00:36:62
  TRACK 30 AUDIO
    TITLE "0:"
    INDEX 01 00:38:18
  TRACK 31 AUDIO
    TITLE "7:cjc040_6527"
    INDEX 01 00:40:07
  TRACK 32 AUDIO
    TITLE "0:"
    INDEX 01 00:41:22
  TRACK 33 AUDIO
    TITLE "8:cjc040_6528"
    INDEX 01 00:42:00
  TRACK 34 AUDIO
    TITLE "0:"
    INDEX 01 00:44:52
  TRACK 35 AUDIO
    TITLE "9:cjc040_6529"
    INDEX 01 00:45:26
  TRACK 36 AUDIO
    TITLE "0:"
    INDEX 01 00:46:49
  TRACK 37 AUDIO
    TITLE "7:cjc040_6530"
    INDEX 01 00:48:30
  TRACK 38 AUDIO
    TITLE "0:"
    INDEX 01 00:49:39
  TRACK 39 AUDIO
    TITLE "8:cjc040_6531"
    INDEX 01 00:50:17
  TRACK 40 AUDIO
    TITLE "0:"
    INDEX 01 00:52:06
  TRACK 41 AUDIO
    TITLE "9:cjc040_6532"
    INDEX 01 00:52:57
  TRACK 42 AUDIO
    TITLE "0:"
    INDEX 01 00:53:66
  TRACK 43 AUDIO
    TITLE "7:cjc040_6533"
    INDEX 01 00:55:53
  TRACK 44 AUDIO
    TITLE "0:"
    INDEX 01 00:56:72
  TRACK 45 AUDIO
    TITLE "8:cjc040_6534"
    INDEX 01 00:57:52
  TRACK 46 AUDIO
    TITLE "0:"
    INDEX 01 00:58:58
  TRACK 47 AUDIO
    TITLE "9:cjc040_6535"
    INDEX 01 00:59:38
  TRACK 48 AUDIO
    TITLE "0:"
    INDEX 01 01:00:60
  TRACK 49 AUDIO
    TITLE "7:cjc040_6536"
    INDEX 01 01:02:46
  TRACK 50 AUDIO
    TITLE "0:"
    INDEX 01 01:03:57
  TRACK 51 AUDIO
    TITLE "8:cjc040_6537"
    INDEX 01 01:04:37
  TRACK 52 AUDIO
    TITLE "0:"
    INDEX 01 01:05:46
  TRACK 53 AUDIO
    TITLE "9:cjc040_6538"
    INDEX 01 01:06:26
  TRACK 54 AUDIO
    TITLE "0:"
    INDEX 01 01:07:39
  TRACK 55 AUDIO
    TITLE "7:cjc040_6539"
    INDEX 01 01:09:18
  TRACK 56 AUDIO
    TITLE "0:"
    INDEX 01 01:10:39
  TRACK 57 AUDIO
    TITLE "8:cjc040_6540"
    INDEX 01 01:11:17
  TRACK 58 AUDIO
    TITLE "0:"
    INDEX 01 01:14:41
  TRACK 59 AUDIO
    TITLE "9:cjc040_6541"
    INDEX 01 01:15:15
  TRACK 60 AUDIO
    TITLE "0:"
    INDEX 01 01:16:36
  TRACK 61 AUDIO
    TITLE "7:cjc040_6542"
    INDEX 01 01:18:19
  TRACK 62 AUDIO
    TITLE "0:"
    INDEX 01 01:19:62
  TRACK 63 AUDIO
    TITLE "8:cjc040_6543"
    INDEX 01 01:20:48
  TRACK 64 AUDIO
    TITLE "0:"
    INDEX 01 01:23:63
  TRACK 65 AUDIO
    TITLE "9:cjc040_6544"
    INDEX 01 01:24:39
  TRACK 66 AUDIO
    TITLE "0:"
    INDEX 01 01:26:11
  TRACK 67 AUDIO
    TITLE "7:cjc040_6545"
    INDEX 01 01:27:65
  TRACK 68 AUDIO
    TITLE "0:"
    INDEX 01 01:29:09
  TRACK 69 AUDIO
    TITLE "8:cjc040_6546"
    INDEX 01 01:29:62
  TRACK 70 AUDIO
    TITLE "0:"
    INDEX 01 01:30:73
  TRACK 71 AUDIO
    TITLE "9:cjc040_6547"
    INDEX 01 01:31:45
  TRACK 72 AUDIO
    TITLE "0:"
    INDEX 01 01:32:70
  TRACK 73 AUDIO
    TITLE "7:cjc040_6548"
    INDEX 01 01:34:52
  TRACK 74 AUDIO
    TITLE "0:"
    INDEX 01 01:36:11
  TRACK 75 AUDIO
    TITLE "8:cjc040_6549"
    INDEX 01 01:36:58
  TRACK 76 AUDIO
    TITLE "0:"
    INDEX 01 01:38:73
  TRACK 77 AUDIO
    TITLE "9:cjc040_6550"
    INDEX 01 01:39:49
  TRACK 78 AUDIO
    TITLE "0:"
    INDEX 01 01:41:09
  TRACK 79 AUDIO
    TITLE "7:cjc040_6551"
    INDEX 01 01:42:57
  TRACK 80 AUDIO
    TITLE "0:"
    INDEX 01 01:44:01
  TRACK 81 AUDIO
    TITLE "8:cjc040_6552"
    INDEX 01 01:44:64
  TRACK 82 AUDIO
    TITLE "0:"
    INDEX 01 01:48:40
  TRACK 83 AUDIO
    TITLE "9:cjc040_6553"
    INDEX 01 01:49:14
  TRACK 84 AUDIO
    TITLE "0:"
    INDEX 01 01:50:39
  TRACK 85 AUDIO
    TITLE "7:cjc040_6554"
    INDEX 01 01:52:20
  TRACK 86 AUDIO
    TITLE "0:"
    INDEX 01 01:53:43
  TRACK 87 AUDIO
    TITLE "8:cjc040_6555"
    INDEX 01 01:54:19
  TRACK 88 AUDIO
    TITLE "0:"
    INDEX 01 01:55:13
  TRACK 89 AUDIO
    TITLE "9:cjc040_6556"
    INDEX 01 01:55:69
  TRACK 90 AUDIO
    TITLE "0:"
    INDEX 01 01:57:19
  TRACK 91 AUDIO
    TITLE "7:cjc040_6557"
    INDEX 01 01:59:04
  TRACK 92 AUDIO
    TITLE "0:"
    INDEX 01 02:00:24
  TRACK 93 AUDIO
    TITLE "8:cjc040_6558"
    INDEX 01 02:01:03
  TRACK 94 AUDIO
    TITLE "0:"
    INDEX 01 02:03:20
  TRACK 95 AUDIO
    TITLE "9:cjc040_6559"
    INDEX 01 02:03:71
  TRACK 96 AUDIO
    TITLE "0:"
    INDEX 01 02:05:09
  TRACK 97 AUDIO
    TITLE "7:cjc040_6560"
    INDEX 01 02:06:67
  TRACK 98 AUDIO
    TITLE "0:"
    INDEX 01 02:08:11
  TRACK 99 AUDIO
    TITLE "8:cjc040_6561"
    INDEX 01 02:08:60
  TRACK 100 AUDIO
    TITLE "0:"
    INDEX 01 02:10:10
  TRACK 101 AUDIO
    TITLE "9:cjc040_6562"
    INDEX 01 02:10:61
  TRACK 102 AUDIO
    TITLE "0:"
    INDEX 01 02:12:05
  TRACK 103 AUDIO
    TITLE "7:cjc040_6563"
    INDEX 01 02:13:57
  TRACK 104 AUDIO
    TITLE "0:"
    INDEX 01 02:15:25
  TRACK 105 AUDIO
    TITLE "8:cjc040_6564"
    INDEX 01 02:16:01
  TRACK 106 AUDIO
    TITLE "0:"
    INDEX 01 02:16:62
  TRACK 107 AUDIO
    TITLE "9:cjc040_6565"
    INDEX 01 02:17:44
  TRACK 108 AUDIO
    TITLE "0:"
    INDEX 01 02:19:11
